<svg width="470" height="352" viewBox="0 0 470 352" fill="none" xmlns="http://www.w3.org/2000/svg">
<rect width="8.06164" height="152.807" transform="matrix(0.98583 0.167746 -0.179745 0.983713 245.825 74.7611)" fill="#1CA08A"/>
<path d="M131.963 104.452L118.177 256.508L110.138 255.829L131.963 104.452Z" fill="#1CA08A"/>
<rect width="8.06464" height="152.746" transform="matrix(0.990928 0.134392 -0.144117 0.989561 128.061 104.023)" fill="#1CA08A"/>
<path d="M171.891 158.335H275.994L265.248 275.149H184.652L171.891 158.335Z" fill="#CB504F"/>
<rect width="8.06464" height="152.746" transform="matrix(0.990928 0.134392 -0.144117 0.989561 339.917 104.071)" fill="#1CA08A"/>
<path d="M68.2589 173.91H165.099L146.269 275.149H82.3814L68.2589 173.91Z" fill="#D9D9D9"/>
<path d="M283.258 173.91H376.87L359.116 274.37H297.784L283.258 173.91Z" fill="#DBAA79"/>
<path d="M166.242 173.91C166.242 178.211 142.312 173.91 113.787 173.91C85.2627 173.91 64.5601 178.211 64.5601 173.91C64.5601 169.609 85.2627 158.335 113.787 158.335C142.312 158.335 166.242 169.609 166.242 173.91Z" fill="#ECFC0C"/>
<path d="M276.801 156.777C276.801 160.218 259.134 156.777 228.381 156.777C197.628 156.777 171.891 160.218 171.891 156.777C171.891 153.337 197.628 144.317 228.381 144.317C259.134 144.317 276.801 153.337 276.801 156.777Z" fill="#ECFC0C"/>
<path d="M376.063 172.353C376.063 177.514 350.434 172.353 322.801 172.353C284.872 172.353 284.872 177.514 284.872 172.353C284.872 167.192 295.168 155.999 322.801 155.999C350.434 155.999 376.063 167.192 376.063 172.353Z" fill="#ECFC0C"/>
<path d="M28.9076 202.294L7.48939 198.136L9.15931 190.126C9.50141 188.485 10.0952 187.168 10.9407 186.175C11.7876 185.175 12.8074 184.494 13.9999 184.132C15.187 183.762 16.4603 183.709 17.8198 183.973C19.1933 184.24 20.3533 184.765 21.2997 185.549C22.2461 186.333 22.9087 187.348 23.2874 188.594C23.6591 189.838 23.6732 191.284 23.3296 192.932L22.2229 198.24L19.0332 197.621L20.0312 192.834C20.2312 191.874 20.2277 191.056 20.0206 190.379C19.8135 189.702 19.4476 189.161 18.9228 188.755C18.3995 188.343 17.7579 188.063 16.9979 187.915C16.2379 187.768 15.5375 187.787 14.8964 187.974C14.2569 188.153 13.7122 188.522 13.2625 189.078C12.8073 189.626 12.4789 190.384 12.2774 191.35L11.5381 194.896L29.7143 198.425L28.9076 202.294Z" fill="white"/>
<path d="M36.9987 139.933C39.1566 140.866 40.8195 142.064 41.9874 143.528C43.1517 144.983 43.8229 146.572 44.001 148.296C44.1821 150.014 43.8705 151.74 43.0662 153.473C42.2619 155.206 41.1339 156.582 39.6822 157.602C38.2269 158.613 36.5478 159.187 34.645 159.323C32.7386 159.451 30.7098 159.05 28.5583 158.12C26.4004 157.187 24.7393 155.994 23.5749 154.539C22.4071 153.075 21.7326 151.484 21.5515 149.767C21.3734 148.042 21.6865 146.313 22.4908 144.58C23.2951 142.847 24.4216 141.474 25.8704 140.461C27.3222 139.441 29.0012 138.867 30.9076 138.739C32.8104 138.603 34.8408 139.001 36.9987 139.933ZM35.3259 143.538C33.8068 142.881 32.4166 142.563 31.1553 142.582C29.8904 142.592 28.7993 142.894 27.882 143.488C26.9581 144.079 26.2466 144.912 25.7473 145.988C25.248 147.064 25.0775 148.131 25.2359 149.189C25.3878 150.245 25.8795 151.235 26.7108 152.159C27.5387 153.073 28.7121 153.859 30.2312 154.515C31.7502 155.172 33.1422 155.495 34.4071 155.485C35.6684 155.465 36.761 155.16 37.6848 154.57C38.6021 153.976 39.3104 153.141 39.8097 152.065C40.3091 150.99 40.4828 149.924 40.3309 148.868C40.1725 147.81 39.6793 146.823 38.8515 145.908C38.0201 144.985 36.8449 144.194 35.3259 143.538Z" fill="white"/>
<path d="M60.7303 119.75L58.7368 118.307L52.6059 100.068L45.7014 108.95L43.0176 107.007L52.9297 94.256L54.9232 95.699L61.0606 113.93L67.9586 105.057L70.6424 106.999L60.7303 119.75Z" fill="white"/>
<path d="M95.7785 66.6989C97.3327 68.4627 98.3234 70.2527 98.7507 72.069C99.1788 73.8754 99.1016 75.5914 98.519 77.2171C97.942 78.8383 96.915 80.2549 95.438 81.4668C93.9611 82.6787 92.3444 83.4314 90.588 83.7249C88.8324 84.0086 87.0625 83.8036 85.2783 83.11C83.4948 82.4065 81.8284 81.1756 80.2789 79.4171C78.7247 77.6532 77.7336 75.8681 77.3055 74.0617C76.8782 72.2455 76.9531 70.5268 77.5302 68.9056C78.1127 67.2799 79.1425 65.8611 80.6194 64.6492C82.0964 63.4373 83.7103 62.6868 85.4612 62.3978C87.2176 62.1043 88.9875 62.3093 90.7709 63.0127C92.5552 63.7063 94.2244 64.935 95.7785 66.6989ZM92.7066 69.2195C91.6126 67.9779 90.4895 67.0953 89.3375 66.5715C88.1862 66.038 87.0667 65.8411 85.9789 65.9808C84.8864 66.1152 83.8817 66.5585 82.9648 67.3109C82.0478 68.0633 81.4329 68.9489 81.1198 69.9679C80.802 70.9815 80.8207 72.0817 81.1759 73.2685C81.5318 74.4455 82.2568 75.6548 83.3508 76.8964C84.4449 78.138 85.5675 79.0256 86.7188 79.5591C87.8708 80.0829 88.9931 80.2775 90.0856 80.1432C91.1734 80.0034 92.1758 79.5574 93.0927 78.805C94.0096 78.0527 94.6269 77.1697 94.9447 76.156C95.2578 75.1371 95.2363 74.0391 94.8804 72.8622C94.5252 71.6753 93.8006 70.4611 92.7066 69.2195Z" fill="white"/>
<path d="M126.777 58.3388L116.134 39.2921L119.641 37.4677L128.667 53.6221L137.191 49.1866L138.807 52.079L126.777 58.3388Z" fill="white"/>
<path d="M160.46 42.3089L153.695 21.5662L167.272 17.442L168.3 20.5919L158.504 23.5674L160.341 29.1987L169.433 26.4368L170.461 29.5867L161.368 32.3486L163.215 38.0103L173.092 35.01L174.12 38.1599L160.46 42.3089Z" fill="white"/>
<path d="M199.897 31.8248L197.572 10.1308L205.714 9.31851C207.382 9.1521 208.812 9.30203 210.005 9.76829C211.205 10.2338 212.15 10.9603 212.842 11.9476C213.539 12.9272 213.963 14.109 214.111 15.4932C214.26 16.8844 214.092 18.1215 213.608 19.2047C213.131 20.2802 212.349 21.1539 211.264 21.8261C210.179 22.4911 208.802 22.9068 207.134 23.0732L201.335 23.6518L200.986 20.3892L206.254 19.8635C207.229 19.7662 208.014 19.5524 208.607 19.222C209.199 18.8845 209.616 18.4397 209.857 17.8875C210.104 17.3275 210.186 16.6627 210.104 15.893C210.021 15.1232 209.799 14.4816 209.437 13.9682C209.074 13.4477 208.566 13.0772 207.914 12.8568C207.261 12.6293 206.444 12.5645 205.461 12.6626L201.857 13.0222L203.829 31.4324L199.897 31.8248ZM210.059 20.8757L216.487 30.1696L212.098 30.6075L205.766 21.3041L210.059 20.8757Z" fill="white"/>
<path d="M247.094 7.87594L245.791 29.6552L241.845 29.4352L243.148 7.656L247.094 7.87594Z" fill="white"/>
<path d="M268.983 31.6606L264.865 30.7442L277.434 11.1921L282.197 12.252L284.634 35.1435L280.516 34.2271L278.859 16.0924L278.692 16.0554L268.983 31.6606ZM271.107 23.3703L282.338 25.8696L281.6 28.9574L270.369 26.458L271.107 23.3703Z" fill="white"/>
<path d="M343.749 32.9668L347.835 35.5557L344.412 52.0933L344.628 52.2301L358.993 42.6266L363.079 45.2155L350.804 63.2536L347.601 61.2235L356.033 48.8312L355.862 48.7228L342.372 57.8348L339.979 56.318L343.3 40.7245L343.129 40.6161L334.678 53.0349L331.475 51.0049L343.749 32.9668Z" fill="white"/>
<path d="M398.776 89.5166C397.003 91.0607 395.184 92.0616 393.318 92.5193C391.463 92.9775 389.684 92.9458 387.981 92.4241C386.283 91.9075 384.782 90.9516 383.477 89.5563C382.172 88.1611 381.337 86.6195 380.973 84.9315C380.619 83.2441 380.771 81.5307 381.428 79.7913C382.095 78.0524 383.312 76.4133 385.08 74.8739C386.852 73.3298 388.666 72.3287 390.522 71.8704C392.387 71.4127 394.169 71.4421 395.867 71.9587C397.57 72.4804 399.074 73.4389 400.379 74.8342C401.684 76.2295 402.516 77.7685 402.875 79.4512C403.239 81.1391 403.087 82.8525 402.42 84.5914C401.763 86.3308 400.548 87.9726 398.776 89.5166ZM396.061 86.6145C397.309 85.5276 398.184 84.4217 398.687 83.2967C399.2 82.1722 399.366 81.0867 399.184 80.0402C399.007 78.9891 398.514 78.0305 397.704 77.1642C396.893 76.298 395.956 75.7265 394.89 75.4498C393.83 75.1684 392.692 75.2139 391.475 75.5863C390.269 75.9592 389.042 76.6891 387.794 77.776C386.546 78.8629 385.666 79.9686 385.153 81.0931C384.65 82.2181 384.487 83.3062 384.664 84.3573C384.845 85.4037 385.341 86.36 386.152 87.2263C386.962 88.0925 387.897 88.6663 388.957 88.9477C390.023 89.2245 391.159 89.1764 392.365 88.8035C393.581 88.4311 394.813 87.7014 396.061 86.6145Z" fill="white"/>
<path d="M429.805 111.272L417.456 124.264L417.567 124.458L435.54 121.32L437.695 125.095L414.617 128.656L412.198 124.418L427.655 107.506L429.805 111.272Z" fill="white"/>
<path d="M451.312 155.094L430.626 162.032L429.287 158.314L449.972 151.375L451.312 155.094ZM452.182 151.162L457.607 151.859L458.885 155.407L453.161 153.878L452.182 151.162Z" fill="white"/>
<path d="M436.801 180.662L458.267 176.76L459.024 180.639L440.818 183.949L442.659 193.38L439.399 193.973L436.801 180.662Z" fill="white"/>
<path d="M0 286.584L47.7417 299.044V286.584H421.933V299.044L469.675 286.584L461.933 318.086L469.675 342.655L421.933 352V342.655H47.7417V352L0 342.655L9.03221 318.086L0 286.584Z" fill="#DBAA79"/>
<path d="M155.323 306.5V304.689C155.323 304.168 155.42 303.627 155.616 303.064C155.817 302.496 156.089 301.96 156.433 301.457C156.782 300.948 157.172 300.519 157.604 300.17L159.096 301.138C158.747 301.665 158.454 302.215 158.217 302.789C157.986 303.357 157.874 303.985 157.88 304.671V306.5H155.323ZM159.824 306.5V304.689C159.824 304.168 159.922 303.627 160.117 303.064C160.318 302.496 160.59 301.96 160.934 301.457C161.283 300.948 161.673 300.519 162.105 300.17L163.597 301.138C163.248 301.665 162.955 302.215 162.718 302.789C162.487 303.357 162.375 303.985 162.381 304.671V306.5H159.824ZM165.998 319V300.818H169.292V316.239H177.3V319H165.998ZM183.177 319H179.661L186.062 300.818H190.128L196.538 319H193.023L188.166 304.547H188.024L183.177 319ZM183.292 311.871H192.881V314.517H183.292V311.871ZM205.134 300.818H209.165L214.562 313.993H214.775L220.173 300.818H224.204V319H221.043V306.509H220.875L215.85 318.947H213.488L208.463 306.482H208.295V319H205.134V300.818ZM244.037 309.909C244.037 311.868 243.67 313.546 242.936 314.943C242.208 316.334 241.214 317.399 239.953 318.139C238.698 318.879 237.275 319.249 235.683 319.249C234.091 319.249 232.664 318.879 231.404 318.139C230.149 317.393 229.155 316.325 228.421 314.934C227.693 313.537 227.329 311.862 227.329 309.909C227.329 307.95 227.693 306.275 228.421 304.884C229.155 303.487 230.149 302.419 231.404 301.679C232.664 300.94 234.091 300.57 235.683 300.57C237.275 300.57 238.698 300.94 239.953 301.679C241.214 302.419 242.208 303.487 242.936 304.884C243.67 306.275 244.037 307.95 244.037 309.909ZM240.725 309.909C240.725 308.53 240.509 307.367 240.077 306.42C239.651 305.467 239.059 304.748 238.302 304.263C237.544 303.772 236.671 303.526 235.683 303.526C234.694 303.526 233.821 303.772 233.064 304.263C232.306 304.748 231.711 305.467 231.279 306.42C230.853 307.367 230.64 308.53 230.64 309.909C230.64 311.288 230.853 312.454 231.279 313.407C231.711 314.354 232.306 315.073 233.064 315.564C233.821 316.05 234.694 316.292 235.683 316.292C236.671 316.292 237.544 316.05 238.302 315.564C239.059 315.073 239.651 314.354 240.077 313.407C240.509 312.454 240.725 311.288 240.725 309.909ZM262.092 300.818V319H259.162L250.595 306.615H250.444V319H247.151V300.818H250.098L258.656 313.212H258.816V300.818H262.092ZM265.681 319V300.818H277.506V303.579H268.975V308.515H276.894V311.276H268.975V316.239H277.577V319H265.681ZM287.028 319H280.867V300.818H287.152C288.957 300.818 290.508 301.182 291.804 301.91C293.106 302.632 294.106 303.671 294.805 305.026C295.503 306.382 295.852 308.003 295.852 309.891C295.852 311.785 295.5 313.413 294.796 314.774C294.098 316.135 293.088 317.18 291.769 317.908C290.455 318.636 288.874 319 287.028 319ZM284.16 316.15H286.868C288.135 316.15 289.191 315.919 290.037 315.458C290.884 314.99 291.52 314.295 291.946 313.371C292.372 312.442 292.585 311.282 292.585 309.891C292.585 308.5 292.372 307.346 291.946 306.429C291.52 305.506 290.89 304.816 290.055 304.36C289.227 303.899 288.197 303.668 286.966 303.668H284.16V316.15ZM300.34 319H296.824L303.225 300.818H307.291L313.701 319H310.186L305.329 304.547H305.187L300.34 319ZM300.456 311.871H310.044V314.517H300.456V311.871ZM316.116 300.818V302.629C316.116 303.15 316.015 303.692 315.814 304.254C315.619 304.81 315.35 305.343 315.006 305.852C314.663 306.355 314.272 306.787 313.834 307.148L312.343 306.18C312.668 305.689 312.953 305.159 313.195 304.591C313.438 304.017 313.559 303.369 313.559 302.647V300.818H316.116ZM320.599 300.818V302.629C320.599 303.15 320.499 303.692 320.297 304.254C320.102 304.81 319.833 305.343 319.49 305.852C319.146 306.355 318.759 306.787 318.327 307.148L316.835 306.18C317.155 305.689 317.436 305.159 317.679 304.591C317.921 304.017 318.043 303.369 318.043 302.647V300.818H320.599Z" fill="black"/>
</svg>
